<mxfile host="65bd71144e">
    <diagram id="lpcPAti37mvGpzDq8p1c" name="Page-1">
        <mxGraphModel dx="1283" dy="635" grid="1" gridSize="10" guides="1" tooltips="1" connect="1" arrows="1" fold="1" page="1" pageScale="1" pageWidth="850" pageHeight="1100" math="0" shadow="0">
            <root>
                <mxCell id="0"/>
                <mxCell id="1" parent="0"/>
                <mxCell id="2" value="" style="group;strokeColor=#B3B3B3;" connectable="0" vertex="1" parent="1">
                    <mxGeometry x="-201.5" y="290.359375" width="730" height="390" as="geometry"/>
                </mxCell>
                <mxCell id="3" value="" style="rounded=0;whiteSpace=wrap;html=1;labelBackgroundColor=default;fontSize=16;fillStyle=hatch;fillColor=#4D4D4D;direction=south;" vertex="1" parent="2">
                    <mxGeometry x="120" y="35" width="30" height="230" as="geometry"/>
                </mxCell>
                <mxCell id="4" value="" style="rounded=0;whiteSpace=wrap;html=1;labelBackgroundColor=default;fontSize=16;fillStyle=hatch;fillColor=#4D4D4D;direction=south;" vertex="1" parent="2">
                    <mxGeometry x="400" y="35" width="30" height="230" as="geometry"/>
                </mxCell>
                <mxCell id="5" value="" style="rounded=0;whiteSpace=wrap;html=1;labelBackgroundColor=default;fontSize=16;fillStyle=hatch;fillColor=#4D4D4D;direction=south;" vertex="1" parent="2">
                    <mxGeometry x="640" y="35" width="30" height="230" as="geometry"/>
                </mxCell>
                <mxCell id="6" value="" style="rounded=0;whiteSpace=wrap;html=1;labelBackgroundColor=default;fontSize=16;fillStyle=hatch;fillColor=#4D4D4D;direction=south;" vertex="1" parent="2">
                    <mxGeometry x="120" y="265" width="30" height="90" as="geometry"/>
                </mxCell>
                <mxCell id="7" value="" style="rounded=0;whiteSpace=wrap;html=1;labelBackgroundColor=default;fontSize=16;fillStyle=hatch;fillColor=#4D4D4D;direction=south;" vertex="1" parent="2">
                    <mxGeometry x="640" y="265" width="30" height="90" as="geometry"/>
                </mxCell>
                <mxCell id="8" value="" style="rounded=0;whiteSpace=wrap;html=1;labelBackgroundColor=default;fontSize=16;fillStyle=hatch;fillColor=#4D4D4D;" vertex="1" parent="2">
                    <mxGeometry x="120" y="355" width="550" height="30" as="geometry"/>
                </mxCell>
                <mxCell id="9" value="" style="rounded=0;whiteSpace=wrap;html=1;labelBackgroundColor=default;fontSize=16;fillStyle=hatch;fillColor=#4D4D4D;" vertex="1" parent="2">
                    <mxGeometry x="150" y="265" width="490" height="30" as="geometry"/>
                </mxCell>
                <mxCell id="10" value="" style="rounded=0;whiteSpace=wrap;html=1;labelBackgroundColor=default;fontSize=16;fillStyle=hatch;fillColor=#4D4D4D;" vertex="1" parent="2">
                    <mxGeometry x="80" y="5" width="640" height="30" as="geometry"/>
                </mxCell>
                <mxCell id="11" value="" style="endArrow=none;html=1;rounded=0;labelBackgroundColor=none;strokeColor=#FF0000;fontSize=11;fontColor=#0000FF;startSize=6;endSize=6;startArrow=oval;startFill=1;endFill=0;" edge="1" parent="2">
                    <mxGeometry width="50" height="50" relative="1" as="geometry">
                        <mxPoint x="120" y="369.7700000000001" as="sourcePoint"/>
                        <mxPoint x="40" y="370.1" as="targetPoint"/>
                    </mxGeometry>
                </mxCell>
                <mxCell id="12" value="" style="endArrow=none;html=1;rounded=0;labelBackgroundColor=none;strokeColor=#FF0000;fontSize=11;fontColor=#0000FF;startSize=6;endSize=6;startArrow=oval;startFill=1;endFill=0;" edge="1" parent="2">
                    <mxGeometry width="50" height="50" relative="1" as="geometry">
                        <mxPoint x="120" y="315" as="sourcePoint"/>
                        <mxPoint x="40" y="315" as="targetPoint"/>
                    </mxGeometry>
                </mxCell>
                <mxCell id="13" value="" style="endArrow=none;html=1;rounded=0;labelBackgroundColor=none;strokeColor=#FF0000;fontSize=11;fontColor=#0000FF;startSize=6;endSize=6;startArrow=oval;startFill=1;exitX=0.556;exitY=1.003;exitDx=0;exitDy=0;exitPerimeter=0;endFill=0;" edge="1" parent="2" source="7">
                    <mxGeometry width="50" height="50" relative="1" as="geometry">
                        <mxPoint x="630" y="315" as="sourcePoint"/>
                        <mxPoint x="40" y="315" as="targetPoint"/>
                    </mxGeometry>
                </mxCell>
                <mxCell id="14" value="" style="endArrow=none;html=1;rounded=0;labelBackgroundColor=none;strokeColor=#FF0000;fontSize=11;fontColor=#0000FF;startSize=6;endSize=6;startArrow=oval;startFill=1;endFill=0;" edge="1" parent="2">
                    <mxGeometry width="50" height="50" relative="1" as="geometry">
                        <mxPoint x="175" y="279.66999999999996" as="sourcePoint"/>
                        <mxPoint x="40" y="280" as="targetPoint"/>
                    </mxGeometry>
                </mxCell>
                <mxCell id="15" value="1" style="text;html=1;strokeColor=none;fillColor=none;align=center;verticalAlign=middle;whiteSpace=wrap;rounded=0;fontSize=16;labelBackgroundColor=none;fontColor=#FF0000;" vertex="1" parent="2">
                    <mxGeometry y="350" width="40" height="40" as="geometry"/>
                </mxCell>
                <mxCell id="16" value="2" style="text;html=1;strokeColor=none;fillColor=none;align=center;verticalAlign=middle;whiteSpace=wrap;rounded=0;fontSize=16;labelBackgroundColor=none;fontColor=#FF0000;" vertex="1" parent="2">
                    <mxGeometry y="295" width="40" height="40" as="geometry"/>
                </mxCell>
                <mxCell id="17" value="3" style="text;html=1;strokeColor=none;fillColor=none;align=center;verticalAlign=middle;whiteSpace=wrap;rounded=0;fontSize=16;labelBackgroundColor=none;fontColor=#FF0000;" vertex="1" parent="2">
                    <mxGeometry y="260" width="40" height="40" as="geometry"/>
                </mxCell>
                <mxCell id="18" value="" style="endArrow=none;html=1;rounded=0;labelBackgroundColor=none;strokeColor=#FF0000;fontSize=11;fontColor=#0000FF;startSize=6;endSize=6;startArrow=oval;startFill=1;endFill=0;" edge="1" parent="2">
                    <mxGeometry width="50" height="50" relative="1" as="geometry">
                        <mxPoint x="120.09000000000003" y="235" as="sourcePoint"/>
                        <mxPoint x="40.09000000000003" y="235" as="targetPoint"/>
                    </mxGeometry>
                </mxCell>
                <mxCell id="19" value="" style="endArrow=none;html=1;rounded=0;labelBackgroundColor=none;strokeColor=#FF0000;fontSize=11;fontColor=#0000FF;startSize=6;endSize=6;startArrow=oval;startFill=1;exitX=0.556;exitY=1.003;exitDx=0;exitDy=0;exitPerimeter=0;endFill=0;" edge="1" parent="2">
                    <mxGeometry width="50" height="50" relative="1" as="geometry">
                        <mxPoint x="639.9999999999998" y="235.03999999999996" as="sourcePoint"/>
                        <mxPoint x="40.09000000000003" y="235" as="targetPoint"/>
                    </mxGeometry>
                </mxCell>
                <mxCell id="20" value="4" style="text;html=1;strokeColor=none;fillColor=none;align=center;verticalAlign=middle;whiteSpace=wrap;rounded=0;fontSize=16;labelBackgroundColor=none;fontColor=#FF0000;" vertex="1" parent="2">
                    <mxGeometry x="0.09000000000003183" y="215" width="40" height="40" as="geometry"/>
                </mxCell>
                <mxCell id="21" value="" style="endArrow=none;html=1;rounded=0;labelBackgroundColor=none;strokeColor=#FF0000;fontSize=11;fontColor=#0000FF;startSize=6;endSize=6;startArrow=oval;startFill=1;endFill=0;exitX=0.609;exitY=1.013;exitDx=0;exitDy=0;exitPerimeter=0;" edge="1" parent="2" source="4">
                    <mxGeometry width="50" height="50" relative="1" as="geometry">
                        <mxPoint x="390" y="175" as="sourcePoint"/>
                        <mxPoint x="40" y="175" as="targetPoint"/>
                    </mxGeometry>
                </mxCell>
                <mxCell id="22" value="5" style="text;html=1;strokeColor=none;fillColor=none;align=center;verticalAlign=middle;whiteSpace=wrap;rounded=0;fontSize=16;labelBackgroundColor=none;fontColor=#FF0000;" vertex="1" parent="2">
                    <mxGeometry x="0.09000000000003183" y="155" width="40" height="40" as="geometry"/>
                </mxCell>
                <mxCell id="23" value="" style="endArrow=none;html=1;rounded=0;labelBackgroundColor=none;strokeColor=#FF0000;fontSize=11;fontColor=#0000FF;startSize=6;endSize=6;startArrow=oval;startFill=1;endFill=0;exitX=0;exitY=0.5;exitDx=0;exitDy=0;" edge="1" parent="2" source="10">
                    <mxGeometry width="50" height="50" relative="1" as="geometry">
                        <mxPoint x="120.09000000000015" y="20" as="sourcePoint"/>
                        <mxPoint x="40.090000000000146" y="20" as="targetPoint"/>
                    </mxGeometry>
                </mxCell>
                <mxCell id="24" value="6" style="text;html=1;strokeColor=none;fillColor=none;align=center;verticalAlign=middle;whiteSpace=wrap;rounded=0;fontSize=16;labelBackgroundColor=none;fontColor=#FF0000;" vertex="1" parent="2">
                    <mxGeometry x="0.09000000000003183" width="40" height="40" as="geometry"/>
                </mxCell>
                <mxCell id="25" value="" style="rounded=0;whiteSpace=wrap;html=1;labelBackgroundColor=default;fillStyle=solid;strokeColor=#000000;fontSize=11;fontColor=#0000FF;fillColor=none;" vertex="1" parent="2">
                    <mxGeometry x="450" y="75" width="160" height="80" as="geometry"/>
                </mxCell>
                <mxCell id="26" value="" style="verticalLabelPosition=bottom;verticalAlign=top;html=1;shape=mxgraph.basic.orthogonal_triangle;labelBackgroundColor=default;fillStyle=solid;strokeColor=none;fontSize=11;fontColor=#0000FF;fillColor=#000000;" vertex="1" parent="2">
                    <mxGeometry x="460" y="125" width="140" height="20" as="geometry"/>
                </mxCell>
                <mxCell id="27" value="" style="verticalLabelPosition=bottom;verticalAlign=top;html=1;shape=mxgraph.basic.orthogonal_triangle;labelBackgroundColor=default;fillStyle=solid;strokeColor=none;fontSize=11;fontColor=#0000FF;fillColor=#000000;direction=north;flipH=1;" vertex="1" parent="2">
                    <mxGeometry x="460" y="85" width="20" height="60" as="geometry"/>
                </mxCell>
                <mxCell id="28" value="" style="endArrow=none;html=1;rounded=0;labelBackgroundColor=none;strokeColor=#000000;fontSize=11;fontColor=#0000FF;startSize=6;endSize=6;exitX=0.296;exitY=0.342;exitDx=0;exitDy=0;exitPerimeter=0;entryX=1;entryY=1;entryDx=0;entryDy=0;entryPerimeter=0;" edge="1" parent="2" source="27" target="26">
                    <mxGeometry width="50" height="50" relative="1" as="geometry">
                        <mxPoint x="530" y="105" as="sourcePoint"/>
                        <mxPoint x="580" y="55" as="targetPoint"/>
                    </mxGeometry>
                </mxCell>
                <mxCell id="29" value="" style="endArrow=none;html=1;rounded=0;labelBackgroundColor=none;strokeColor=#000000;fontSize=11;fontColor=#0000FF;startSize=6;endSize=6;exitX=0;exitY=1;exitDx=0;exitDy=0;exitPerimeter=0;" edge="1" parent="2" source="27">
                    <mxGeometry width="50" height="50" relative="1" as="geometry">
                        <mxPoint x="510" y="165" as="sourcePoint"/>
                        <mxPoint x="600" y="145" as="targetPoint"/>
                    </mxGeometry>
                </mxCell>
                <mxCell id="30" value="" style="endArrow=none;html=1;rounded=0;labelBackgroundColor=none;strokeColor=#000000;fontSize=11;fontColor=#0000FF;startSize=6;endSize=6;entryX=1;entryY=1;entryDx=0;entryDy=0;entryPerimeter=0;" edge="1" parent="2" target="27">
                    <mxGeometry width="50" height="50" relative="1" as="geometry">
                        <mxPoint x="460" y="145" as="sourcePoint"/>
                        <mxPoint x="560" y="115" as="targetPoint"/>
                    </mxGeometry>
                </mxCell>
                <mxCell id="31" value="" style="endArrow=none;html=1;rounded=0;labelBackgroundColor=none;strokeColor=#000000;fontSize=11;fontColor=#0000FF;startSize=6;endSize=6;exitX=0.292;exitY=0.315;exitDx=0;exitDy=0;exitPerimeter=0;" edge="1" parent="2" source="27">
                    <mxGeometry width="50" height="50" relative="1" as="geometry">
                        <mxPoint x="510" y="165" as="sourcePoint"/>
                        <mxPoint x="460" y="85" as="targetPoint"/>
                    </mxGeometry>
                </mxCell>
                <mxCell id="32" value="" style="group" connectable="0" vertex="1" parent="2">
                    <mxGeometry x="320" y="95" width="40" height="40" as="geometry"/>
                </mxCell>
                <mxCell id="33" value="" style="ellipse;whiteSpace=wrap;html=1;fontSize=11;fillColor=none;" vertex="1" parent="32">
                    <mxGeometry width="40" height="40" as="geometry"/>
                </mxCell>
                <mxCell id="34" value="" style="shape=image;verticalLabelPosition=bottom;labelBackgroundColor=default;verticalAlign=top;aspect=fixed;imageAspect=0;image=data:image/svg+xml,PHN2ZyB4bWxucz0iaHR0cDovL3d3dy53My5vcmcvMjAwMC9zdmciIGlkPSJzdmcyIiBoZWlnaHQ9IjQ2NiIgd2lkdGg9IjQ2NiIgdmVyc2lvbj0iMS4wIiB2aWV3Qm94PSIwIDAgNDY2IDQ2NiI+JiN4YTsgIDxkZWZzIGlkPSJkZWZzNCIvPiYjeGE7ICA8ZyBpZD0iZzE4NzgiPiYjeGE7ICAgIDxwYXRoIGlkPSJwYXRoMTM2NiIgc3R5bGU9ImZpbGw6d2hpdGUiIGQ9Ik0gNDY0LjI1OTkxLDIzMi43MDc5MiBDIDQ2NC4yNTk5MSwzNTkuNzMzNDEgMzYxLjI4NTQsNDYyLjcwNzkyIDIzNC4yNTk5MSw0NjIuNzA3OTIgQyAxMDcuMjM0NDIsNDYyLjcwNzkyIDQuMjU5OTEsMzU5LjczMzQxIDQuMjU5OTEsMjMyLjcwNzkyIEMgNC4yNTk5MSwxMDUuNjgyNDMgMTA3LjIzNDQyLDIuNzA3OTIgMjM0LjI1OTkxLDIuNzA3OTIgQyAzNjEuMjg1NCwyLjcwNzkyIDQ2NC4yNTk5MSwxMDUuNjgyNDMgNDY0LjI1OTkxLDIzMi43MDc5MiBMIDQ2NC4yNTk5MSwyMzIuNzA3OTIgeiIvPiYjeGE7ICAgIDxwYXRoIGlkPSJwYXRoMTM1MSIgc3R5bGU9ImZpbGw6YmxhY2siIGQ9Ik0gMjE3LjE3MDM2LDQ2My42MDg0OSBDIDExNy41MjMxNiw0NTguNDEyMjQgMjcuNzg2NTMyLDM4MC43ODk2IDcuMzQyNDEyLDI4My4zNDQ2NSBDIC0xMS40NTg3ODgsMjAxLjk4ODcgMTcuOTg4MDcyLDExMS45NjY0NiA4MS43NzIxMDIsNTcuOTI4MDg1IEMgMTI3LjAyNjY5LDE4LjU2NzczNSAxODcuODQ0NjcsLTIuMTc4MzA1IDI0Ny43NTI0NCwyLjMzNzEyNSBDIDM0Mi42Mjc2NCw2LjE4OTEwNSA0MjkuNDkxODIsNzYuNTAzOTI1IDQ1NS4wNDY0NywxNjcuNjk4NDkgQyA0NjUuNTIyMDEsMjAxLjIxMiA0NjUuNDkyNTgsMjM3LjE5MDU5IDQ2MS4yNjIwOSwyNzEuNzA3ODcgQyA0NDYuODQ2MzIsMzU5LjYwMjE5IDM3Ny43MDk5Nyw0MzUuNTE0NTMgMjkxLjAyNzY0LDQ1Ni43NTc1MSBDIDI2Ny4wNjAwNCw0NjIuNjQ4MDYgMjQxLjgxMjU2LDQ2NS43MTQ4MSAyMTcuMTcwMzYsNDYzLjYwODQ5IHogTSAxODEuNjcwMzYsNDQ5LjQyMzk4IEMgMTM5LjM5ODIzLDQyOC42NzQwNiAxMTMuMjY1MDQsMzgwLjYwMzU5IDExOS4yNTk1NCwzMzMuODMzNjIgQyAxMjQuMDQ5MjksMjc4LjcwMDYzIDE3NC4yMDU0MywyMzMuMTQwNDQgMjI5LjMzNTk2LDIzMi4xNTQxNyBDIDI3NS40OTIsMjMzLjU3NzQzIDMyMS4wMTE5NSwyMDQuODc3MDMgMzM3Ljc4MTIyLDE2MS41NjMzNiBDIDM1Ny44NjA5MiwxMTQuMjA1NjMgMzQwLjUwNDg2LDU0Ljc2NTkxNSAyOTcuODQzOTQsMjUuODQzNTY1IEMgMjYyLjg3NDQ0LDAuMDY0ODU1IDIxNi4wODU0OCw1LjUzMjM3NSAxNzYuMjg1ODIsMTQuNDkyMDA1IEMgODQuMjg3ODEyLDM3LjA0MDk4NSAxMy4xNTYzMTIsMTIzLjIwNTQzIDguMDE2NjcyLDIxNy43MTcyMSBDIDEuMzA1ODQyLDMwMy4wMDk1OSA0OC4yNjcwNTIsMzg5LjEwOTYyIDEyMy40MDc4NCw0MjkuOTMxMzEgQyAxNDIuMjI0NzMsNDQwLjA5NDA2IDE2OC45NDU3MSw0NTEuOTcxMTMgMTg2LjU0OTQzLDQ1Mi4yMTQzNyBMIDE4NC42MDIyNCw0NTEuMDIyODUgTCAxODEuNjcwMzcsNDQ5LjQyMzk4IEwgMTgxLjY3MDM2LDQ0OS40MjM5OCB6Ii8+JiN4YTsgIDwvZz4mI3hhOzwvc3ZnPg==;" vertex="1" parent="32">
                    <mxGeometry x="1.25" y="1.25" width="37.5" height="37.5" as="geometry"/>
                </mxCell>
                <mxCell id="35" value="" style="ellipse;whiteSpace=wrap;html=1;fontSize=11;fillColor=none;strokeColor=#FFFFFF;strokeWidth=2;" vertex="1" parent="32">
                    <mxGeometry x="1.25" y="1.25" width="37.5" height="37.5" as="geometry"/>
                </mxCell>
                <mxCell id="36" value="" style="endArrow=none;html=1;rounded=0;labelBackgroundColor=none;strokeColor=#00CC00;fontSize=11;fontColor=#0000FF;startSize=6;endSize=6;entryX=0;entryY=1;entryDx=0;entryDy=0;" edge="1" parent="2">
                    <mxGeometry width="50" height="50" relative="1" as="geometry">
                        <mxPoint x="630" y="154.9999999999999" as="sourcePoint"/>
                        <mxPoint x="610" y="154.9999999999999" as="targetPoint"/>
                    </mxGeometry>
                </mxCell>
                <mxCell id="37" value="" style="endArrow=classic;html=1;rounded=0;labelBackgroundColor=none;strokeColor=#00CC00;fontSize=11;fontColor=#0000FF;startSize=6;endSize=6;startArrow=oval;startFill=1;exitX=0.959;exitY=0.001;exitDx=0;exitDy=0;exitPerimeter=0;" edge="1" parent="2" source="9">
                    <mxGeometry width="50" height="50" relative="1" as="geometry">
                        <mxPoint x="620" y="255" as="sourcePoint"/>
                        <mxPoint x="620" y="155" as="targetPoint"/>
                    </mxGeometry>
                </mxCell>
                <mxCell id="38" value="AAAcm" style="text;html=1;strokeColor=none;fillColor=none;align=center;verticalAlign=middle;whiteSpace=wrap;rounded=0;fontSize=11;fontColor=#00CC00;labelBackgroundColor=default;" vertex="1" parent="2">
                    <mxGeometry x="630" y="145" width="40" height="20" as="geometry"/>
                </mxCell>
                <mxCell id="39" value="" style="endArrow=none;html=1;rounded=0;labelBackgroundColor=none;strokeColor=#00CC00;fontSize=11;fontColor=#0000FF;startSize=6;endSize=6;entryX=0;entryY=1;entryDx=0;entryDy=0;" edge="1" parent="2">
                    <mxGeometry width="50" height="50" relative="1" as="geometry">
                        <mxPoint x="630" y="74.71999999999991" as="sourcePoint"/>
                        <mxPoint x="610" y="74.71999999999991" as="targetPoint"/>
                    </mxGeometry>
                </mxCell>
                <mxCell id="40" value="" style="endArrow=classic;html=1;rounded=0;labelBackgroundColor=none;strokeColor=#00CC00;fontSize=11;fontColor=#0000FF;startSize=6;endSize=6;startArrow=oval;startFill=1;exitX=0.959;exitY=0.001;exitDx=0;exitDy=0;exitPerimeter=0;" edge="1" parent="2">
                    <mxGeometry width="50" height="50" relative="1" as="geometry">
                        <mxPoint x="619.9099999999999" y="265.03" as="sourcePoint"/>
                        <mxPoint x="620" y="75" as="targetPoint"/>
                    </mxGeometry>
                </mxCell>
                <mxCell id="41" value="BBBcm" style="text;html=1;strokeColor=none;fillColor=none;align=center;verticalAlign=middle;whiteSpace=wrap;rounded=0;fontSize=11;fontColor=#00CC00;labelBackgroundColor=default;" vertex="1" parent="2">
                    <mxGeometry x="635" y="65" width="40" height="20" as="geometry"/>
                </mxCell>
                <mxCell id="42" value="" style="endArrow=none;html=1;rounded=0;labelBackgroundColor=none;strokeColor=#00CC00;fontSize=11;fontColor=#0000FF;startSize=6;endSize=6;entryX=0;entryY=1;entryDx=0;entryDy=0;" edge="1" parent="2">
                    <mxGeometry width="50" height="50" relative="1" as="geometry">
                        <mxPoint x="450" y="75" as="sourcePoint"/>
                        <mxPoint x="450" y="54.999999999999886" as="targetPoint"/>
                    </mxGeometry>
                </mxCell>
                <mxCell id="43" value="" style="endArrow=none;html=1;rounded=0;labelBackgroundColor=none;strokeColor=#00CC00;fontSize=11;fontColor=#0000FF;startSize=6;endSize=6;entryX=1;entryY=1;entryDx=0;entryDy=0;" edge="1" parent="2">
                    <mxGeometry width="50" height="50" relative="1" as="geometry">
                        <mxPoint x="610" y="75" as="sourcePoint"/>
                        <mxPoint x="610" y="54.999999999999886" as="targetPoint"/>
                    </mxGeometry>
                </mxCell>
                <mxCell id="44" value="" style="endArrow=classic;html=1;rounded=0;labelBackgroundColor=none;strokeColor=#00CC00;fontSize=11;fontColor=#0000FF;startSize=6;endSize=6;startArrow=oval;startFill=1;exitX=0.135;exitY=-0.003;exitDx=0;exitDy=0;exitPerimeter=0;" edge="1" parent="2" source="41">
                    <mxGeometry width="50" height="50" relative="1" as="geometry">
                        <mxPoint x="640" y="65" as="sourcePoint"/>
                        <mxPoint x="610" y="65" as="targetPoint"/>
                    </mxGeometry>
                </mxCell>
                <mxCell id="45" value="" style="endArrow=classic;html=1;rounded=0;labelBackgroundColor=none;strokeColor=#00CC00;fontSize=11;fontColor=#0000FF;startSize=6;endSize=6;startArrow=oval;startFill=1;" edge="1" parent="2">
                    <mxGeometry width="50" height="50" relative="1" as="geometry">
                        <mxPoint x="640" y="65" as="sourcePoint"/>
                        <mxPoint x="450" y="65" as="targetPoint"/>
                    </mxGeometry>
                </mxCell>
                <mxCell id="46" value="CCCcm" style="text;html=1;strokeColor=none;fillColor=none;align=center;verticalAlign=middle;whiteSpace=wrap;rounded=0;fontSize=11;fontColor=#00CC00;" vertex="1" parent="2">
                    <mxGeometry x="588" y="35" width="45" height="20" as="geometry"/>
                </mxCell>
                <mxCell id="47" value="DDDcm" style="text;html=1;strokeColor=none;fillColor=none;align=center;verticalAlign=middle;whiteSpace=wrap;rounded=0;fontSize=11;fontColor=#00CC00;" vertex="1" parent="2">
                    <mxGeometry x="430" y="35" width="40" height="20" as="geometry"/>
                </mxCell>
                <mxCell id="48" value="" style="endArrow=none;html=1;rounded=0;labelBackgroundColor=none;strokeColor=#00CC00;fontSize=11;fontColor=#0000FF;startSize=6;endSize=6;entryX=0;entryY=1;entryDx=0;entryDy=0;" edge="1" parent="2">
                    <mxGeometry width="50" height="50" relative="1" as="geometry">
                        <mxPoint x="339.89" y="75" as="sourcePoint"/>
                        <mxPoint x="339.89" y="54.999999999999886" as="targetPoint"/>
                    </mxGeometry>
                </mxCell>
                <mxCell id="49" value="" style="endArrow=classic;html=1;rounded=0;labelBackgroundColor=none;strokeColor=#00CC00;fontSize=11;fontColor=#0000FF;startSize=6;endSize=6;startArrow=oval;startFill=1;exitX=0.13;exitY=0.004;exitDx=0;exitDy=0;exitPerimeter=0;" edge="1" parent="2" source="41">
                    <mxGeometry width="50" height="50" relative="1" as="geometry">
                        <mxPoint x="670" y="65" as="sourcePoint"/>
                        <mxPoint x="340" y="65" as="targetPoint"/>
                    </mxGeometry>
                </mxCell>
                <mxCell id="50" value="EEEcm" style="text;html=1;strokeColor=none;fillColor=none;align=center;verticalAlign=middle;whiteSpace=wrap;rounded=0;fontSize=11;fontColor=#00CC00;" vertex="1" parent="2">
                    <mxGeometry x="320" y="35" width="40" height="20" as="geometry"/>
                </mxCell>
                <mxCell id="51" value="" style="endArrow=none;html=1;rounded=0;labelBackgroundColor=none;strokeColor=#00CC00;fontSize=11;fontColor=#0000FF;startSize=6;endSize=6;entryX=0;entryY=1;entryDx=0;entryDy=0;" edge="1" parent="2">
                    <mxGeometry width="50" height="50" relative="1" as="geometry">
                        <mxPoint x="320" y="114.86000000000001" as="sourcePoint"/>
                        <mxPoint x="300" y="114.86000000000001" as="targetPoint"/>
                    </mxGeometry>
                </mxCell>
                <mxCell id="52" value="FFFcm" style="text;html=1;strokeColor=none;fillColor=none;align=center;verticalAlign=middle;whiteSpace=wrap;rounded=0;fontSize=11;fontColor=#00CC00;labelBackgroundColor=default;" vertex="1" parent="2">
                    <mxGeometry x="260" y="105" width="40" height="20" as="geometry"/>
                </mxCell>
                <mxCell id="53" value="" style="endArrow=classic;html=1;rounded=0;labelBackgroundColor=none;strokeColor=#00CC00;fontSize=11;fontColor=#0000FF;startSize=6;endSize=6;startArrow=oval;startFill=1;exitX=0.959;exitY=0.001;exitDx=0;exitDy=0;exitPerimeter=0;" edge="1" parent="2">
                    <mxGeometry width="50" height="50" relative="1" as="geometry">
                        <mxPoint x="309.90999999999985" y="265" as="sourcePoint"/>
                        <mxPoint x="310" y="114.97000000000003" as="targetPoint"/>
                    </mxGeometry>
                </mxCell>
                <mxCell id="54" value="Ordre de fabrication (shelter)" style="text;html=1;strokeColor=none;fillColor=none;align=center;verticalAlign=middle;whiteSpace=wrap;rounded=0;fontSize=16;labelBackgroundColor=none;fontColor=#FF0000;" vertex="1" parent="1">
                    <mxGeometry x="-201.5" y="250.359375" width="210" height="40" as="geometry"/>
                </mxCell>
            </root>
        </mxGraphModel>
    </diagram>
</mxfile>